<?xml version="1.0" standalone="no"?><!DOCTYPE svg PUBLIC "-//W3C//DTD SVG 1.1//EN" "http://www.w3.org/Graphics/SVG/1.1/DTD/svg11.dtd"><svg t="1589201401001" class="icon" viewBox="0 0 1024 1024" version="1.1" xmlns="http://www.w3.org/2000/svg" p-id="957" xmlns:xlink="http://www.w3.org/1999/xlink" width="28" height="28"><defs><style type="text/css"></style></defs><path d="M655.9615909 560.50569671c60.77038023-47.03984867 99.9046656-120.68500366 99.9046656-203.48151808 0-142.03584626-115.14528768-257.17996999-257.18462692-257.17996999-142.03235328 0-257.17764096 115.14412373-257.17764096 257.17996999 0 82.96766578 39.29728683 156.74555051 100.28189696 203.77259122C93.86788181 639.19224832 121.31497415 908.65669575 121.31497415 908.65669575l71.59715954 0c0 0-5.31617109-292.21710051 302.01464377-294.49679076 1.25045305 0.01862883 2.49974101 0.04773661 3.75368704 0.04773661 1.22134528 0 2.43454066-0.02910777 3.65006507-0.04540757 1.44256114 0.01164288 2.87697351 0.01513586 4.33350656 0.03842162 328.12512483 5.32082802 322.66923805 294.45720405 322.66923804 294.45720405l74.62781952 0C903.96225763 908.65669575 926.58218211 638.54140757 655.9615909 560.50569671L655.9615909 560.50569671zM498.67347854 539.85110243c-100.9665024 0-182.8187739-81.84877739-182.8187739-182.81528092 0-100.96766749 81.85227037-182.81993785 182.8187739-182.81993785 100.97232441 0 182.8187739 81.85227037 182.81877391 182.81993785C681.49225245 458.00232391 599.64580295 539.85110243 498.67347854 539.85110243L498.67347854 539.85110243z" p-id="958" fill="#515151"></path></svg>