<?xml version="1.0" standalone="no"?><!DOCTYPE svg PUBLIC "-//W3C//DTD SVG 1.1//EN" "http://www.w3.org/Graphics/SVG/1.1/DTD/svg11.dtd"><svg t="1589201456881" class="icon" viewBox="0 0 1024 1024" version="1.1" xmlns="http://www.w3.org/2000/svg" p-id="1186" xmlns:xlink="http://www.w3.org/1999/xlink" width="28" height="28"><defs><style type="text/css"></style></defs><path d="M34.69866667 66.208h68.20266666c54.45333333-0.01066667 99.89333333 36.75733333 113.632 89.44l1.26933334 5.472 18.592 77.856h-1.86666667l53.41866667 255.82933333 40.48 202.432h508.61866666l76.81066667-383.86133333H307.62666667l-16.66133334-74.41066667h617.58933334a79.73333333 79.73333333 0 0 1 61.824 29.376 79.68426667 79.68426667 0 0 1 16.256 66.496l-76.81066667 372.128c-7.65866667 37.056-40.288 63.616-78.12266667 63.60533334H330.56c-37.81333333 0-70.432-26.57066667-78.09066667-63.60533334l-75.488-365.58933333-0.50133333 0.10666667-34.56-163.92533334c-3.60533333-17.06666667-17.89866667-29.81333333-35.27466667-31.44533333l-3.72266666-0.192H34.67733333V66.208h68.20266667-68.18133333z m751.04 757.536c36.69333333 0 66.44266667 29.76 66.44266666 66.45333333s-29.74933333 66.45333333-66.44266666 66.45333334c-36.704 0-66.45333333-29.76-66.45333334-66.45333334s29.74933333-66.45333333 66.45333334-66.45333333z m-403.776 0c36.69333333 0 66.44266667 29.76 66.44266666 66.45333333s-29.74933333 66.45333333-66.44266666 66.45333334c-36.704 0-66.45333333-29.76-66.45333334-66.45333334s29.74933333-66.45333333 66.45333334-66.45333333z" fill="#515151" p-id="1187"></path></svg>